<svg width="21" height="20" viewBox="0 0 21 20" fill="none" xmlns="http://www.w3.org/2000/svg">
<g clip-path="url(#clip0_1_49)">
<path d="M5.94584 2.5H18C18.221 2.5 18.433 2.5878 18.5893 2.74408C18.7455 2.90036 18.8333 3.11232 18.8333 3.33333V16.6667C18.8333 16.8877 18.7455 17.0996 18.5893 17.2559C18.433 17.4122 18.221 17.5 18 17.5H5.94584C5.80868 17.5 5.67363 17.4662 5.55269 17.4015C5.43174 17.3368 5.32863 17.2433 5.2525 17.1292L0.808338 10.4625C0.716972 10.3256 0.668213 10.1646 0.668213 10C0.668213 9.83538 0.716972 9.67444 0.808338 9.5375L5.2525 2.87083C5.32863 2.75674 5.43174 2.66319 5.55269 2.5985C5.67363 2.53381 5.80868 2.49998 5.94584 2.5ZM11.3333 8.82167L8.97667 6.46417L7.7975 7.64333L10.155 10L7.7975 12.3567L8.97667 13.5358L11.3333 11.1783L13.69 13.5358L14.8692 12.3567L12.5117 10L14.8692 7.64333L13.69 6.46417L11.3333 8.82167Z" fill="white"/>
</g>
<defs>
<clipPath id="clip0_1_49">
<rect width="20" height="20" fill="white" transform="translate(0.5)"/>
</clipPath>
</defs>
</svg>
